<mxfile host="app.diagrams.net" agent="Mozilla/5.0 (Windows NT 10.0; Win64; x64) AppleWebKit/537.36 (KHTML, like Gecko) Chrome/132.0.0.0 Safari/537.36" version="26.0.10">
  <diagram name="Page-1" id="FDmsq8e1_6SeovOxjkyL">
    <mxGraphModel dx="1234" dy="446" grid="1" gridSize="10" guides="1" tooltips="1" connect="1" arrows="1" fold="1" page="1" pageScale="1" pageWidth="850" pageHeight="1100" math="0" shadow="0">
      <root>
        <mxCell id="0" />
        <mxCell id="1" parent="0" />
        <mxCell id="BanayCbziXLBZXhSuR67-18" value="pod2 on node2" style="ellipse;whiteSpace=wrap;html=1;aspect=fixed;fillColor=#ffe6cc;strokeColor=#d79b00;" parent="1" vertex="1">
          <mxGeometry x="865" y="60" width="60" height="60" as="geometry" />
        </mxCell>
        <mxCell id="BanayCbziXLBZXhSuR67-1" value="Nike.com" style="ellipse;whiteSpace=wrap;html=1;" parent="1" vertex="1">
          <mxGeometry x="100" y="120" width="70" height="80" as="geometry" />
        </mxCell>
        <mxCell id="BanayCbziXLBZXhSuR67-3" value="route53" style="rounded=1;whiteSpace=wrap;html=1;" parent="1" vertex="1">
          <mxGeometry x="260" y="140" width="80" height="40" as="geometry" />
        </mxCell>
        <mxCell id="BanayCbziXLBZXhSuR67-8" value="Https Protocol" style="endArrow=classic;startArrow=classic;html=1;rounded=0;exitX=1.017;exitY=0.6;exitDx=0;exitDy=0;exitPerimeter=0;entryX=0;entryY=0.5;entryDx=0;entryDy=0;" parent="1" source="BanayCbziXLBZXhSuR67-1" target="BanayCbziXLBZXhSuR67-3" edge="1">
          <mxGeometry width="50" height="50" relative="1" as="geometry">
            <mxPoint x="350" y="240" as="sourcePoint" />
            <mxPoint x="400" y="190" as="targetPoint" />
            <Array as="points">
              <mxPoint x="180" y="180" />
            </Array>
          </mxGeometry>
        </mxCell>
        <mxCell id="BanayCbziXLBZXhSuR67-10" value="application load balancer, used at L7." style="rounded=1;whiteSpace=wrap;html=1;" parent="1" vertex="1">
          <mxGeometry x="400" y="130" width="85" height="60" as="geometry" />
        </mxCell>
        <mxCell id="BanayCbziXLBZXhSuR67-11" value="" style="endArrow=classic;startArrow=classic;html=1;rounded=0;exitX=1;exitY=0.5;exitDx=0;exitDy=0;entryX=0;entryY=0.5;entryDx=0;entryDy=0;" parent="1" source="BanayCbziXLBZXhSuR67-3" target="BanayCbziXLBZXhSuR67-10" edge="1">
          <mxGeometry width="50" height="50" relative="1" as="geometry">
            <mxPoint x="400" y="260" as="sourcePoint" />
            <mxPoint x="450" y="210" as="targetPoint" />
          </mxGeometry>
        </mxCell>
        <mxCell id="BanayCbziXLBZXhSuR67-13" value="Target groups for nike.com/watches" style="rounded=1;whiteSpace=wrap;html=1;fillColor=#ffe6cc;strokeColor=#d79b00;" parent="1" vertex="1">
          <mxGeometry x="530" y="30" width="90" height="60" as="geometry" />
        </mxCell>
        <mxCell id="BanayCbziXLBZXhSuR67-14" value="Target group for nike.com/shoes" style="rounded=1;whiteSpace=wrap;html=1;fillColor=#fff2cc;strokeColor=#d6b656;" parent="1" vertex="1">
          <mxGeometry x="530" y="120" width="90" height="60" as="geometry" />
        </mxCell>
        <mxCell id="BanayCbziXLBZXhSuR67-15" value="" style="endArrow=classic;startArrow=classic;html=1;rounded=0;" parent="1" edge="1">
          <mxGeometry width="50" height="50" relative="1" as="geometry">
            <mxPoint x="485" y="140" as="sourcePoint" />
            <mxPoint x="535" y="90" as="targetPoint" />
          </mxGeometry>
        </mxCell>
        <mxCell id="BanayCbziXLBZXhSuR67-16" value="" style="endArrow=classic;startArrow=classic;html=1;rounded=0;entryX=1;entryY=0.5;entryDx=0;entryDy=0;exitX=0.008;exitY=0.625;exitDx=0;exitDy=0;exitPerimeter=0;" parent="1" source="BanayCbziXLBZXhSuR67-14" target="BanayCbziXLBZXhSuR67-10" edge="1">
          <mxGeometry width="50" height="50" relative="1" as="geometry">
            <mxPoint x="530" y="180" as="sourcePoint" />
            <mxPoint x="485" y="130" as="targetPoint" />
          </mxGeometry>
        </mxCell>
        <mxCell id="BanayCbziXLBZXhSuR67-19" value="pod1 on node1" style="ellipse;whiteSpace=wrap;html=1;aspect=fixed;fillColor=#ffe6cc;strokeColor=#d79b00;" parent="1" vertex="1">
          <mxGeometry x="860" width="60" height="60" as="geometry" />
        </mxCell>
        <mxCell id="BanayCbziXLBZXhSuR67-22" value="" style="endArrow=classic;startArrow=classic;html=1;rounded=0;entryX=0;entryY=0.25;entryDx=0;entryDy=0;exitX=1;exitY=0.5;exitDx=0;exitDy=0;" parent="1" source="BanayCbziXLBZXhSuR67-13" target="BanayCbziXLBZXhSuR67-21" edge="1">
          <mxGeometry width="50" height="50" relative="1" as="geometry">
            <mxPoint x="720" y="100" as="sourcePoint" />
            <mxPoint x="770" y="50" as="targetPoint" />
          </mxGeometry>
        </mxCell>
        <mxCell id="BanayCbziXLBZXhSuR67-24" value="" style="endArrow=classic;startArrow=classic;html=1;rounded=0;exitX=1.025;exitY=0.606;exitDx=0;exitDy=0;exitPerimeter=0;entryX=-0.031;entryY=0.325;entryDx=0;entryDy=0;entryPerimeter=0;" parent="1" source="BanayCbziXLBZXhSuR67-21" target="BanayCbziXLBZXhSuR67-18" edge="1">
          <mxGeometry width="50" height="50" relative="1" as="geometry">
            <mxPoint x="780" y="250" as="sourcePoint" />
            <mxPoint x="830" y="200" as="targetPoint" />
            <Array as="points" />
          </mxGeometry>
        </mxCell>
        <mxCell id="BanayCbziXLBZXhSuR67-21" value="service used for internal communication and for stable endpoint." style="rounded=0;whiteSpace=wrap;html=1;fillColor=#ffe6cc;strokeColor=#d79b00;" parent="1" vertex="1">
          <mxGeometry x="670" y="30" width="120" height="60" as="geometry" />
        </mxCell>
        <mxCell id="BanayCbziXLBZXhSuR67-49" value="service used for internal communication and for stable endpoint." style="rounded=0;whiteSpace=wrap;html=1;fillColor=#fff2cc;strokeColor=#d6b656;" parent="1" vertex="1">
          <mxGeometry x="670" y="120" width="120" height="60" as="geometry" />
        </mxCell>
        <mxCell id="BanayCbziXLBZXhSuR67-50" value="" style="endArrow=classic;startArrow=classic;html=1;rounded=0;entryX=-0.025;entryY=0.383;entryDx=0;entryDy=0;entryPerimeter=0;" parent="1" target="BanayCbziXLBZXhSuR67-19" edge="1">
          <mxGeometry width="50" height="50" relative="1" as="geometry">
            <mxPoint x="790" y="50" as="sourcePoint" />
            <mxPoint x="840" as="targetPoint" />
          </mxGeometry>
        </mxCell>
        <mxCell id="BanayCbziXLBZXhSuR67-51" value="pod1 on node1" style="ellipse;whiteSpace=wrap;html=1;fillColor=#fff2cc;strokeColor=#d6b656;" parent="1" vertex="1">
          <mxGeometry x="860" y="145" width="65" height="50" as="geometry" />
        </mxCell>
        <mxCell id="BanayCbziXLBZXhSuR67-52" value="Target group for nike.com/bags" style="rounded=1;whiteSpace=wrap;html=1;fillColor=#f8cecc;strokeColor=#b85450;" parent="1" vertex="1">
          <mxGeometry x="530" y="200" width="90" height="60" as="geometry" />
        </mxCell>
        <mxCell id="BanayCbziXLBZXhSuR67-55" value="Target group for nike.com/bags" style="rounded=1;whiteSpace=wrap;html=1;fillColor=#e1d5e7;strokeColor=#9673a6;" parent="1" vertex="1">
          <mxGeometry x="530" y="280" width="90" height="60" as="geometry" />
        </mxCell>
        <mxCell id="BanayCbziXLBZXhSuR67-56" value="service used for internal communication and for stable endpoint." style="rounded=0;whiteSpace=wrap;html=1;fillColor=#f8cecc;strokeColor=#b85450;" parent="1" vertex="1">
          <mxGeometry x="670" y="195" width="120" height="60" as="geometry" />
        </mxCell>
        <mxCell id="BanayCbziXLBZXhSuR67-57" value="service used for internal communication and for stable endpoint." style="rounded=0;whiteSpace=wrap;html=1;fillColor=#e1d5e7;strokeColor=#9673a6;" parent="1" vertex="1">
          <mxGeometry x="670" y="280" width="120" height="60" as="geometry" />
        </mxCell>
        <mxCell id="BanayCbziXLBZXhSuR67-58" value="pod1 on node1" style="ellipse;whiteSpace=wrap;html=1;fillColor=#f8cecc;strokeColor=#b85450;" parent="1" vertex="1">
          <mxGeometry x="855" y="210" width="65" height="50" as="geometry" />
        </mxCell>
        <mxCell id="BanayCbziXLBZXhSuR67-59" value="pod1 on node1" style="ellipse;whiteSpace=wrap;html=1;fillColor=#e1d5e7;strokeColor=#9673a6;" parent="1" vertex="1">
          <mxGeometry x="860" y="285" width="65" height="50" as="geometry" />
        </mxCell>
        <mxCell id="BanayCbziXLBZXhSuR67-60" value="" style="endArrow=classic;startArrow=classic;html=1;rounded=0;entryX=0;entryY=0.5;entryDx=0;entryDy=0;" parent="1" target="BanayCbziXLBZXhSuR67-51" edge="1">
          <mxGeometry width="50" height="50" relative="1" as="geometry">
            <mxPoint x="790" y="160" as="sourcePoint" />
            <mxPoint x="840" y="110" as="targetPoint" />
          </mxGeometry>
        </mxCell>
        <mxCell id="BanayCbziXLBZXhSuR67-61" value="" style="endArrow=classic;startArrow=classic;html=1;rounded=0;entryX=0;entryY=0.5;entryDx=0;entryDy=0;" parent="1" target="BanayCbziXLBZXhSuR67-58" edge="1">
          <mxGeometry width="50" height="50" relative="1" as="geometry">
            <mxPoint x="790" y="230" as="sourcePoint" />
            <mxPoint x="840" y="180" as="targetPoint" />
          </mxGeometry>
        </mxCell>
        <mxCell id="BanayCbziXLBZXhSuR67-62" value="" style="endArrow=classic;startArrow=classic;html=1;rounded=0;entryX=0;entryY=0.5;entryDx=0;entryDy=0;" parent="1" target="BanayCbziXLBZXhSuR67-59" edge="1">
          <mxGeometry width="50" height="50" relative="1" as="geometry">
            <mxPoint x="790" y="320" as="sourcePoint" />
            <mxPoint x="840" y="270" as="targetPoint" />
          </mxGeometry>
        </mxCell>
        <mxCell id="BanayCbziXLBZXhSuR67-63" value="" style="endArrow=classic;startArrow=classic;html=1;rounded=0;entryX=0;entryY=0.5;entryDx=0;entryDy=0;" parent="1" target="BanayCbziXLBZXhSuR67-49" edge="1">
          <mxGeometry width="50" height="50" relative="1" as="geometry">
            <mxPoint x="620" y="160" as="sourcePoint" />
            <mxPoint x="670" y="110" as="targetPoint" />
          </mxGeometry>
        </mxCell>
        <mxCell id="BanayCbziXLBZXhSuR67-64" value="" style="endArrow=classic;startArrow=classic;html=1;rounded=0;entryX=0;entryY=0.5;entryDx=0;entryDy=0;" parent="1" edge="1">
          <mxGeometry width="50" height="50" relative="1" as="geometry">
            <mxPoint x="620" y="235" as="sourcePoint" />
            <mxPoint x="670" y="225" as="targetPoint" />
          </mxGeometry>
        </mxCell>
        <mxCell id="BanayCbziXLBZXhSuR67-65" value="" style="endArrow=classic;startArrow=classic;html=1;rounded=0;entryX=-0.042;entryY=0.617;entryDx=0;entryDy=0;entryPerimeter=0;exitX=1;exitY=0.5;exitDx=0;exitDy=0;" parent="1" source="BanayCbziXLBZXhSuR67-55" target="BanayCbziXLBZXhSuR67-57" edge="1">
          <mxGeometry width="50" height="50" relative="1" as="geometry">
            <mxPoint x="620" y="330" as="sourcePoint" />
            <mxPoint x="670" y="280" as="targetPoint" />
          </mxGeometry>
        </mxCell>
      </root>
    </mxGraphModel>
  </diagram>
</mxfile>
